<?xml version="1.0" encoding="utf-8"?>
<!-- Designed by Vexels.com - 2019 All Rights Reserved - https://vexels.com/terms-and-conditions/  -->
<svg version="1.1" id="Layer_1" xmlns="http://www.w3.org/2000/svg" xmlns:xlink="http://www.w3.org/1999/xlink" x="0px" y="0px"
	 viewBox="0 0 1200 1200" enable-background="new 0 0 1200 1200" xml:space="preserve">
<path fill="#010101" d="M599.353,373.581c33.675-1.489,34.261-57.231-1.992-57.231C561.038,316.349,563.327,375.174,599.353,373.581
	z M1125.58,733.159c-5.426,1.594-15.137,11.362-7.442,16.522c6.101,4.091,7.187-3.85,11.62-4.425
	c6.556-0.852,6.577,9.227,6.485,13.198c-0.204,8.774-4.187,15.465-10.7,21.128c-28.085,24.42-28.722-16.86-30.704-45.064
	c1.224-3.477,1.521-7.724,1.804-10.602c2.974-30.197,5.434-60.021-13.53-86.03c-17.064-23.403-43.66-41.336-73.663-39.415
	c-25.602,1.715-47.975,13.742-68.418,28.336c10.698-28.264,13.498-58.633-2.483-82.153c-7.394-10.984-15.811-22.177-28.572-28.948
	c-13.782-7.314-33.562-15.423-49.389-11.247c-22.784,6.011-48.401,29.67-42.689,55.641c1.789,8.134,11.172,16.836,19.249,9.627
	c6.994-6.243,2.223-19.063,7.273-27.026c13.669-21.55,39.506-18.4,58.215-5.56c24.947,17.121,30.532,41.964,24.91,70.568
	c-4.689,24.228-21.572,48.922-39.413,67.356c-7.995,8.261-16.16,16.328-24.379,24.335c0.208-0.496,0.452-0.993,0.653-1.489
	c9.675-23.867,13.351-48.728-0.581-71.528c-12.525-20.497-35.501-29.595-59.139-26.082c-16.464,2.449-41.683,22.237-33.262,41.737
	c3.323,7.694,12.576,8.837,17.744,2.292c3.055-3.869,3.265-9.427,6.002-13.482c3.338-4.945,8.826-7.629,14.546-8.846
	c20.592-4.38,40.713,5.931,46.964,26.534c6.231,20.539-6.32,47.695-17.688,64.278c-9.58,13.974-19.678,27.199-31.286,39.218
	c4.753-13.018,5.586-27.208,0.789-41.503c-4.644-13.841-15.961-24.828-29.127-31.136c-11.068-5.303-23.846-7.576-35.802-4.802
	c-11.955,2.774-22.871,10.994-27.453,22.38c-1.943,4.827-2.681,10.483-0.358,15.139c2.322,4.657,8.441,7.567,13.026,5.107
	c4.324-2.32,5.482-7.826,7.656-12.226c6.703-13.563,26.463-17.207,39.186-9.012c54.728,35.25-33.291,117.717-78.272,87.942
	c-20.528-13.588-24.557-43.49-15.753-66.48c10.13-26.451,33.895-49.119,54.868-67.393c23.095-20.123,46.846-36.746,59.621-65.631
	c22.343-50.522,4.174-136.172-63.454-133.673c-14.239,0.544-27.919,7.419-37.312,18.032c-4.496-18.301-12.393-35.809-24.723-49.947
	c-35.135-40.288-105.803-40.581-141.193,0c-12.33,14.139-20.227,31.647-24.723,49.948c-9.393-10.613-23.073-17.488-37.312-18.032
	c-67.629-2.499-85.798,83.151-63.454,133.673c12.774,28.885,36.526,45.508,59.621,65.631c20.973,18.274,44.737,40.942,54.868,67.393
	c8.805,22.99,4.775,52.892-15.753,66.48c-44.981,29.775-133-52.692-78.272-87.942c12.723-8.195,32.483-4.551,39.186,9.012
	c2.174,4.4,3.333,9.906,7.657,12.226c4.585,2.46,10.703-0.45,13.026-5.107c2.322-4.656,1.584-10.312-0.359-15.139
	c-4.582-11.386-15.497-19.605-27.452-22.38s-24.733-0.501-35.802,4.802c-13.167,6.307-24.483,17.295-29.127,31.136
	c-4.796,14.295-3.964,28.485,0.789,41.503c-11.608-12.019-21.707-25.245-31.286-39.218c-11.368-16.583-23.919-43.739-17.688-64.278
	c6.251-20.603,26.372-30.914,46.964-26.534c5.72,1.216,11.208,3.901,14.546,8.846c2.737,4.055,2.948,9.613,6.002,13.482
	c5.168,6.546,14.421,5.403,17.743-2.292c8.421-19.501-16.798-39.288-33.261-41.737c-23.638-3.512-46.614,5.585-59.139,26.082
	c-13.933,22.801-10.257,47.661-0.581,71.528c0.201,0.496,0.445,0.993,0.653,1.489c-8.219-8.007-16.384-16.073-24.379-24.335
	c-17.841-18.435-34.723-43.128-39.413-67.356c-5.622-28.605-0.037-53.447,24.91-70.568c18.709-12.84,44.546-15.99,58.215,5.56
	c5.051,7.963,0.279,20.783,7.273,27.026c8.078,7.209,17.46-1.492,19.249-9.627c5.712-25.971-19.905-49.63-42.689-55.641
	c-15.827-4.176-35.607,3.933-49.389,11.247c-12.761,6.771-21.177,17.965-28.572,28.948c-15.982,23.52-13.181,53.889-2.483,82.153
	c-20.442-14.594-42.816-26.621-68.418-28.336c-30.003-1.921-56.599,16.012-73.663,39.415c-18.964,26.009-16.504,55.833-13.53,86.03
	c0.283,2.878,0.581,7.125,1.805,10.602c-1.983,28.204-2.62,69.484-30.704,45.064c-6.513-5.663-10.496-12.355-10.7-21.128
	c-0.092-3.971-0.071-14.05,6.485-13.198c4.433,0.575,5.519,8.517,11.619,4.425c7.695-5.16-2.016-14.928-7.442-16.522
	c-20.277-5.959-26.356,18.284-23.909,33.136c2.773,16.834,19.512,34.633,37.542,33.51c12.699-0.791,19.175-9.373,22.625-19.82
	c7.832,25.918,26.348,49.48,55.107,51.39c0.801,0.053,1.565,0.052,2.336,0.06c1.244,1.227,2.795,2.174,4.614,2.625
	c133.086,33.06,268.98,49.59,409.66,49.59c141.299,0,287.424-16.677,440.373-50.03c1.771-0.386,3.3-1.249,4.558-2.38
	c2.159,0.24,4.45,0.296,6.889,0.134c28.759-1.909,47.275-25.472,55.107-51.39c3.45,10.446,9.927,19.029,22.625,19.82
	c18.03,1.123,34.769-16.676,37.542-33.51C1151.935,751.443,1145.857,727.2,1125.58,733.159z M1077.75,671.035
	C1077.865,671.321,1078.272,672.508,1077.75,671.035L1077.75,671.035z M699.961,501.941c-0.241-5.553-0.74-11.176-1.521-16.795
	c5.73-6.277,14.454-11.042,22.322-12.817c26.673-6.016,50.211,11.812,57.339,36.73c13.868,48.481-10.714,86.5-46.771,116.32
	c-37.205,30.769-80.265,69.184-74.961,122.959c1.464,14.843,6.342,24.232,14.795,36.242c5.499,7.813,11.986,13.7,19.092,17.925
	c-2.828-0.185-5.618-0.424-8.309-0.779c-22.562-2.982-43.828-23.044-56.738-41.285c-0.345-0.601-2.568-4.049-3.25-5.298
	c-1.85-3.391-3.4-6.916-4.685-10.56c-2.883-8.178-4.891-17.028-5.168-25.701c-0.541-16.949,3.343-32.375,10.107-47.774
	c12.416-28.27,32.441-51.409,49.129-77.029C689.262,566.567,701.397,535.073,699.961,501.941z M538.087,447.114
	c30.41-47.217,93.124-47.662,123.823-0.005c16.425,25.499,21.138,57.858,12.712,86.963c-13.827,47.758-54.846,83.114-74.621,127.901
	c-19.775-44.787-60.794-80.143-74.621-127.901C516.953,504.969,521.665,472.612,538.087,447.114z M528.836,784.581
	c8.453-12.01,13.331-21.4,14.795-36.242c5.304-53.775-37.756-92.189-74.961-122.959c-36.057-29.821-60.639-67.839-46.771-116.32
	c7.128-24.918,30.666-42.746,57.339-36.73c7.868,1.774,16.592,6.54,22.322,12.817c-0.781,5.619-1.28,11.242-1.521,16.795
	c-1.437,33.132,10.698,64.626,28.618,92.137c16.688,25.621,36.713,48.76,49.129,77.029c6.764,15.399,10.647,30.825,10.107,47.774
	c-0.277,8.673-2.285,17.523-5.168,25.701c-1.285,3.644-2.834,7.17-4.684,10.56c-0.682,1.251-2.908,4.702-3.25,5.299
	c-12.91,18.241-34.176,38.303-56.737,41.284c-2.691,0.356-5.481,0.595-8.309,0.779C516.851,798.281,523.337,792.394,528.836,784.581
	z M122.25,671.035C121.728,672.508,122.135,671.321,122.25,671.035L122.25,671.035z M152.681,633.022
	c43.99-27.168,91.634,0.757,126.359,32.649c4.032,6.126,8.229,11.845,12.421,16.982c15.772,19.329,34.256,38.415,53.688,54.066
	c17.402,14.016,37.421,28.19,54.361,39.786c1.422,0.975,2.86,1.901,4.304,2.82c0.49,0.305,0.972,0.628,1.467,0.922
	c3.834,2.38,7.726,4.577,11.683,6.526c0.315,0.275,0.635,0.544,0.953,0.815c-50.613-22.513-96.306-55.575-146.098-79.845
	c-32.657-15.918-84.158-37.891-120.951-25.745c-13.745,4.537-24.265,13.492-31.62,24.71
	C120.228,677.896,124.826,650.226,152.681,633.022z M1066.881,800.079c-8.554,11.372-25.995,22.774-40.486,15.671
	c-14.023-6.874-13.409-27.806-10.844-40.895c1.512-7.716,4.286-16.34,9.548-22.367c5.68-6.505,12.281-6.695,19.258-10.558
	c13.735-7.604,1.728-21.167-10.528-17.669c-16.113,4.598-27.331,19.457-32.261,34.758c-5.372,16.671-6.062,41.875,3.512,57.735
	c-12.331,2.616-24.624,5.138-36.866,7.535c9.478-15.877,0.368-43.823-22.14-43.823c-17.24,0-28.108,16.878-26.425,32.658
	c0.904,8.481,5.559,14.487,12.004,18.034c-233.114,41.743-450.488,43.011-659.713,3.838c4.536-3.627,7.685-8.821,8.41-15.621
	c1.683-15.78-9.185-32.658-26.425-32.658c-20.731,0-30.084,23.702-24.03,39.852c-12.04-2.58-24.051-5.32-36.042-8.171
	c10.675-15.713,10.141-42.117,4.578-59.379c-4.93-15.3-16.148-30.16-32.261-34.758c-12.256-3.498-24.263,10.066-10.528,17.669
	c6.977,3.862,13.579,4.053,19.258,10.558c5.262,6.026,8.037,14.651,9.549,22.37c2.38,12.151,3.569,32.072-8.969,39.24
	c-15.341,8.769-32.816-1.327-42.361-14.018c-9.843-13.087-13.92-28.555-13.255-44.761c0.625-15.238,6.58-33.773,18.624-43.924
	c13.346-11.248,30.501-12.176,47.056-11.107c-2.042-0.092,8.681,0.914,9.852,1.112c3.264,0.552,6.519,1.328,9.734,2.113
	c9.339,2.279,18.331,5.408,27.343,8.715c37.703,13.837,70.836,32.193,104.315,54.321c18.881,12.48,38.512,29.215,59.153,38.471
	c12.194,5.468,24.853,9.686,37.518,13.901c14.079,4.685,29.157,6.612,43.986,6.942c14.114,0.314,30.041,0.945,43.99-1.048
	c27.17-3.88,52.262-24.446,68.234-46.039c4.037-5.458,7.454-11.189,10.331-17.113c2.877,5.924,6.294,11.656,10.331,17.113
	c15.972,21.593,41.064,42.159,68.233,46.039c13.95,1.993,29.876,1.362,43.99,1.048c14.829-0.33,29.907-2.257,43.986-6.942
	c12.665-4.215,25.324-8.433,37.518-13.901c20.641-9.256,40.272-25.991,59.153-38.471c33.479-22.128,66.612-40.484,104.315-54.321
	c9.011-3.307,18.004-6.436,27.343-8.715c3.215-0.784,6.47-1.56,9.734-2.113c1.17-0.198,11.894-1.204,9.852-1.112
	c16.555-1.069,33.71-0.141,47.056,11.107c12.045,10.151,17.999,28.687,18.624,43.924
	C1080.801,771.523,1076.725,786.99,1066.881,800.079z M1049.132,681.999c-36.794-12.147-88.295,9.827-120.952,25.745
	c-49.792,24.271-95.485,57.333-146.098,79.845c0.319-0.271,0.638-0.541,0.953-0.815c3.957-1.949,7.849-4.146,11.683-6.526
	c0.495-0.294,0.977-0.617,1.467-0.922c1.444-0.92,2.882-1.845,4.304-2.82c16.94-11.596,36.959-25.77,54.361-39.786
	c19.432-15.651,37.916-34.737,53.688-54.066c4.192-5.137,8.388-10.856,12.421-16.982c34.725-31.892,82.368-59.817,126.359-32.649
	c27.854,17.203,32.452,44.874,33.432,73.686C1073.397,695.491,1062.876,686.536,1049.132,681.999z M600,615.951
	c13.494-30.563,41.485-54.69,50.921-87.279c5.75-19.861,2.534-41.943-8.674-59.343c-20.948-32.521-63.744-32.217-84.496,0.004
	c-11.206,17.4-14.421,39.48-8.672,59.339C558.514,561.262,586.506,585.389,600,615.951z"/>
</svg>
